<?xml version="1.0" standalone="no"?>
<!DOCTYPE svg PUBLIC "-//W3C//DTD SVG 20010904//EN"
 "http://www.w3.org/TR/2001/REC-SVG-20010904/DTD/svg10.dtd">
<svg version="1.0" xmlns="http://www.w3.org/2000/svg"
 width="404.000000pt" height="404.000000pt" viewBox="0 0 404.000000 404.000000"
 preserveAspectRatio="xMidYMid meet">
<metadata>
Created by potrace 1.11, written by Peter Selinger 2001-2013
</metadata>
<g transform="translate(0.000000,404.000000) scale(0.100000,-0.100000)"
fill="#000000" stroke="none">
<path d="M1585 3719 c-236 -137 -470 -272 -520 -301 -49 -29 -97 -57 -106 -63
-10 -5 -30 -17 -46 -26 -15 -8 -118 -67 -228 -131 -110 -63 -216 -124 -235
-135 -19 -11 -52 -29 -72 -42 l-37 -22 2 -976 2 -976 40 -22 c22 -12 107 -61
189 -108 82 -48 153 -87 158 -87 4 0 8 -4 8 -10 0 -5 4 -10 9 -10 4 0 45 -21
91 -47 45 -27 98 -57 118 -69 21 -11 165 -95 322 -186 276 -160 588 -340 660
-381 19 -11 44 -26 55 -33 33 -24 11 -34 292 129 72 42 147 85 165 95 67 38
143 83 158 92 8 5 53 31 100 58 47 27 101 58 120 69 147 85 482 279 510 295
19 11 112 64 205 118 l170 98 2 976 1 975 -71 42 c-40 23 -187 108 -327 189
-248 143 -566 326 -840 485 -295 171 -327 189 -370 213 -25 13 -49 28 -54 33
-6 5 -17 9 -25 8 -9 0 -209 -113 -446 -250z m455 77 c0 -2 -9 -6 -20 -9 -11
-3 -18 -1 -14 4 5 9 34 13 34 5z m-150 -80 c0 -2 -7 -7 -16 -10 -8 -3 -12 -2
-9 4 6 10 25 14 25 6z m-1020 -590 c0 -2 -7 -7 -16 -10 -8 -3 -12 -2 -9 4 6
10 25 14 25 6z m2465 -76 c3 -6 -1 -7 -9 -4 -18 7 -21 14 -7 14 6 0 13 -4 16
-10z m55 -36 c0 -2 -9 0 -20 6 -11 6 -20 13 -20 16 0 2 9 0 20 -6 11 -6 20
-13 20 -16z m-2893 -1436 c-1 -249 -2 -48 -2 447 0 495 1 699 2 453 2 -245 2
-650 0 -900z m3070 5 c-1 -246 -2 -48 -2 442 0 490 1 691 2 448 2 -243 2 -643
0 -890z m-710 1231 c-3 -3 -12 -4 -19 -1 -8 3 -5 6 6 6 11 1 17 -2 13 -5z
m-1600 -70 c-3 -3 -12 -4 -19 -1 -8 3 -5 6 6 6 11 1 17 -2 13 -5z m-50 -116
c-2 -18 -4 -4 -4 32 0 36 2 50 4 33 2 -18 2 -48 0 -65z m1650 0 c-2 -18 -4 -4
-4 32 0 36 2 50 4 33 2 -18 2 -48 0 -65z m-1650 -1026 c-1 -169 -2 -28 -2 313
0 341 1 479 2 307 2 -172 2 -451 0 -620z m1648 -289 c-2 -7 -10 -13 -17 -12
-10 0 -10 2 0 6 9 4 13 138 14 616 l3 612 3 -605 c1 -333 0 -611 -3 -617z
m-685 1073 c0 -2 -7 -7 -16 -10 -8 -3 -12 -2 -9 4 6 10 25 14 25 6z m3 -151
c-3 -9 -8 -14 -10 -11 -3 3 -2 9 2 15 9 16 15 13 8 -4z m144 -107 c-3 -8 -6
-5 -6 6 -1 11 2 17 5 13 3 -3 4 -12 1 -19z m-842 -88 c-3 -5 -12 -10 -18 -10
-7 0 -6 4 3 10 19 12 23 12 15 0z m1055 -44 c0 -2 -8 -10 -17 -17 -16 -13 -17
-12 -4 4 13 16 21 21 21 13z m-20 -110 c0 -2 -7 -7 -16 -10 -8 -3 -12 -2 -9 4
6 10 25 14 25 6z m-762 -41 c-3 -3 -9 2 -12 12 -6 14 -5 15 5 6 7 -7 10 -15 7
-18z m569 -7 c-3 -8 -6 -5 -6 6 -1 11 2 17 5 13 3 -3 4 -12 1 -19z m-592 -28
c-3 -5 -12 -10 -18 -10 -7 0 -6 4 3 10 19 12 23 12 15 0z m-228 -506 c-3 -3
-12 -4 -19 -1 -8 3 -5 6 6 6 11 1 17 -2 13 -5z m40 0 c-3 -3 -12 -4 -19 -1 -8
3 -5 6 6 6 11 1 17 -2 13 -5z m40 0 c-3 -3 -12 -4 -19 -1 -8 3 -5 6 6 6 11 1
17 -2 13 -5z m360 0 c-3 -3 -12 -4 -19 -1 -8 3 -5 6 6 6 11 1 17 -2 13 -5z
m40 0 c-3 -3 -12 -4 -19 -1 -8 3 -5 6 6 6 11 1 17 -2 13 -5z m40 0 c-3 -3 -12
-4 -19 -1 -8 3 -5 6 6 6 11 1 17 -2 13 -5z m40 0 c-3 -3 -12 -4 -19 -1 -8 3
-5 6 6 6 11 1 17 -2 13 -5z m400 0 c-3 -3 -12 -4 -19 -1 -8 3 -5 6 6 6 11 1
17 -2 13 -5z m40 0 c-3 -3 -12 -4 -19 -1 -8 3 -5 6 6 6 11 1 17 -2 13 -5z m40
0 c-3 -3 -12 -4 -19 -1 -8 3 -5 6 6 6 11 1 17 -2 13 -5z m40 0 c-3 -3 -12 -4
-19 -1 -8 3 -5 6 6 6 11 1 17 -2 13 -5z m40 0 c-3 -3 -12 -4 -19 -1 -8 3 -5 6
6 6 11 1 17 -2 13 -5z m40 0 c-3 -3 -12 -4 -19 -1 -8 3 -5 6 6 6 11 1 17 -2
13 -5z m40 0 c-3 -3 -12 -4 -19 -1 -8 3 -5 6 6 6 11 1 17 -2 13 -5z m313 -489
c0 -2 -10 -9 -22 -15 -22 -11 -22 -10 -4 4 21 17 26 19 26 11z m-1745 -123
c-3 -3 -11 0 -18 7 -9 10 -8 11 6 5 10 -3 15 -9 12 -12z"/>
</g>
</svg>
